<svg width="311" height="49" viewBox="0 0 311 49" fill="none" xmlns="http://www.w3.org/2000/svg">
<path d="M25.45 0L31.46 18.5H50.9L35.17 29.9297L41.18 48.4199L25.45 36.9897L9.71997 48.4199L15.73 29.9297L0 18.5H19.44L25.45 0Z" fill="white"/>
<path d="M90.34 0L96.34 18.5H115.79L100.06 29.9297L106.07 48.4199L90.34 36.9897L74.6 48.4199L80.61 29.9297L64.88 18.5H84.33L90.34 0Z" fill="white"/>
<path d="M155.22 0L161.23 18.5H180.67L164.94 29.9297L170.95 48.4199L155.22 36.9897L139.49 48.4199L145.5 29.9297L129.77 18.5H149.21L155.22 0Z" fill="white"/>
<path d="M220.1 0L226.11 18.5H245.56L229.83 29.9297L235.84 48.4199L220.1 36.9897L204.37 48.4199L210.38 29.9297L194.65 18.5H214.1L220.1 0Z" fill="white"/>
<path d="M284.99 0L291 18.5H310.44L294.71 29.9297L300.72 48.4199L284.99 36.9897L269.26 48.4199L275.27 29.9297L259.54 18.5H278.98L284.99 0Z" fill="white"/>
</svg>
