<?xml version="1.0" encoding="UTF-8"?>
<svg version="1.1" xmlns="http://www.w3.org/2000/svg" width="512" height="512">
<path d="M0 0 C97.68 0 195.36 0 296 0 C296.66 1.32 297.32 2.64 298 4 C297.34 4 296.68 4 296 4 C295.76490723 4.55975525 295.52981445 5.1195105 295.28759766 5.69622803 C293.68578033 8.56220238 291.7191402 10.53526452 289.3984375 12.86035156 C288.93318665 13.32910706 288.46793579 13.79786255 287.98858643 14.28082275 C286.45570362 15.82247932 284.91565558 17.35673904 283.375 18.890625 C282.30618497 19.96078747 281.23766697 21.03124667 280.16943359 22.10198975 C277.93325082 24.34111749 275.69349907 26.5765963 273.45117188 28.80957031 C270.57248304 31.6768374 267.70290216 34.55302616 264.83590698 37.43198013 C262.6331173 39.64198179 260.42560499 41.84721633 258.21661377 44.05101776 C257.15615873 45.1101359 256.09719491 46.17074926 255.03973389 47.23285675 C253.56511748 48.71253049 252.08428062 50.18567746 250.6015625 51.65722656 C249.75932129 52.49787659 248.91708008 53.33852661 248.04931641 54.20465088 C246 56 246 56 244 56 C244 56.66 244 57.32 244 58 C242.89802308 58.00423194 241.79604616 58.00846388 240.660676 58.01282406 C213.88889441 58.11586312 187.11714057 58.22459133 160.34540653 58.33933926 C147.39898153 58.39469699 134.45255377 58.4481831 121.50610352 58.49731445 C110.22643193 58.54012513 98.94678085 58.58639512 87.6671409 58.63687855 C81.69065296 58.66350467 75.71416914 58.68835828 69.73765755 58.70907402 C64.11941925 58.72860245 58.50122007 58.75273462 52.88301659 58.78049088 C50.8145328 58.78988149 48.74604041 58.79754947 46.67754364 58.80341911 C43.86649307 58.81164629 41.05553832 58.82591311 38.24452209 58.84178162 C37.414772 58.84275972 36.58502191 58.84373783 35.73012787 58.84474558 C32.06408064 58.52472425 32.06408064 58.52472425 29 60 C28.9022818 61.50553301 28.8744451 63.01565213 28.87415886 64.52435303 C28.87024724 65.99989088 28.87024724 65.99989088 28.86625659 67.50523758 C28.86848732 68.59889004 28.87071804 69.6925425 28.87301636 70.81933594 C28.87145637 71.97104656 28.86989638 73.12275719 28.86828911 74.30936813 C28.86497595 77.52043474 28.86618822 80.73146396 28.86927533 83.94252968 C28.87152764 87.39996166 28.86805067 90.85738838 28.86529541 94.31481934 C28.86083689 101.09356661 28.86181454 107.87230285 28.86470805 114.65105057 C28.86696177 120.15778952 28.86727475 125.66452537 28.86618423 131.17126465 C28.86595439 132.34460613 28.86595439 132.34460613 28.86571989 133.54165149 C28.86540018 135.13047822 28.86507597 136.71930496 28.8647473 138.30813169 C28.86189227 153.22442817 28.86517989 168.14071852 28.87054767 183.05701399 C28.87501573 195.87004365 28.8742398 208.68306425 28.86962891 221.49609375 C28.86428355 236.35716018 28.86216696 251.21822123 28.86524117 266.07928848 C28.86555974 267.66243744 28.86587411 269.24558639 28.86618423 270.82873535 C28.86633851 271.60777875 28.86649279 272.38682214 28.86665174 273.18947291 C28.86751701 278.69284491 28.8660538 284.1962135 28.86370468 289.69958496 C28.86090691 296.40169198 28.86164446 303.10378728 28.86698543 309.80589294 C28.86962275 313.22873073 28.87062698 316.65154894 28.86733627 320.0743866 C28.86462806 323.77649899 28.86800186 327.4785553 28.87301636 331.18066406 C28.87078564 332.27431652 28.86855491 333.36796898 28.86625659 334.49476242 C28.86886434 335.47845432 28.87147209 336.46214622 28.87415886 337.47564697 C28.87432121 338.33137424 28.87448356 339.18710152 28.87465084 340.06875992 C28.78718864 342.0071296 28.78718864 342.0071296 30 343 C31.5117114 343.09683929 33.0279539 343.12371721 34.54276371 343.12304783 C35.53055571 343.12503888 36.5183477 343.12702993 37.53607279 343.12908131 C39.18341108 343.12471205 39.18341108 343.12471205 40.86402893 343.12025452 C42.02052867 343.12110894 43.17702842 343.12196337 44.36857361 343.12284368 C47.59297443 343.12421183 50.81733559 343.12106449 54.04173172 343.11606562 C57.51345756 343.11176433 60.98518142 343.11320732 64.45690918 343.1139679 C70.47666937 343.11449334 76.49641875 343.11134445 82.51617622 343.10573006 C91.21983328 343.09761776 99.92348509 343.09500011 108.62714552 343.09374207 C122.74679464 343.09155112 136.866438 343.08488988 150.98608398 343.07543945 C164.70548473 343.06626643 178.42488392 343.05918506 192.14428711 343.05493164 C192.98934413 343.05466892 193.83440116 343.05440619 194.70506597 343.05413551 C198.94428749 343.05283051 203.18350903 343.05156679 207.42273057 343.05032361 C242.61515782 343.03994967 277.80757838 343.0223302 313 343 C313.00219984 341.59221393 313.00219984 341.59221393 313.00444412 340.15598774 C313.04102308 317.33001871 313.10045157 294.5041966 313.18390274 271.67834949 C313.22372881 260.63997462 313.25610317 249.60167141 313.27099609 238.56323242 C313.28399411 228.94323067 313.31091142 219.32338636 313.35461307 209.70347327 C313.3772695 204.60877036 313.39290818 199.51426193 313.39188385 194.41950417 C313.39113971 189.6251563 313.40899141 184.83123905 313.44116783 180.03700256 C313.44969365 178.2765976 313.45139863 176.51614448 313.44580269 174.75572777 C313.43918139 172.35286649 313.45703678 169.95138281 313.48101807 167.54866028 C313.46937744 166.50244128 313.46937744 166.50244128 313.45750165 165.43508655 C313.54149851 160.6846571 314.68694504 158.35832714 318 155 C319.4540625 153.7934375 319.4540625 153.7934375 320.9375 152.5625 C324.0731044 150.09360369 324.0731044 150.09360369 326.5 147 C329.0892143 143.89294284 331.89936486 141.58386262 335 139 C335.825 138.01 336.65 137.02 337.5 136 C340.0892143 132.89294284 342.89936486 130.58386262 346 128 C347.2375 126.515 347.2375 126.515 348.5 125 C351.0892143 121.89294284 353.89936486 119.58386262 357 117 C358.2375 115.515 358.2375 115.515 359.5 114 C362.19405334 110.76713599 364.55967507 108.41554729 368 106 C370.18359375 106.37109375 370.18359375 106.37109375 372 107 C372.02288518 140.78469594 372.04050781 174.56938995 372.05106533 208.35409192 C372.05231605 212.34201832 372.05361037 216.32994471 372.05493164 220.31787109 C372.05532511 221.50876559 372.05532511 221.50876559 372.05572652 222.72371857 C372.0600787 235.58158867 372.06796378 248.4394543 372.0771528 261.29732175 C372.08650188 274.48911521 372.09205828 287.68090632 372.09408849 300.87270296 C372.09546111 309.0137703 372.09979759 317.15482501 372.10791647 325.29588847 C372.11382359 331.5367847 372.11445577 337.7776713 372.11310768 344.01856995 C372.11338328 346.58001661 372.11537878 349.14146374 372.11920547 351.70290756 C372.12416801 355.19531751 372.12298874 358.68767307 372.12025452 362.18008423 C372.12462378 363.70635703 372.12462378 363.70635703 372.12908131 365.26346362 C372.11912211 369.95797612 371.97843254 374.3833275 371 379 C370.01 379 369.02 379 368 379 C368.2475 379.53625 368.495 380.0725 368.75 380.625 C369.06421606 383.61005261 368.1080849 384.99272685 366.35546875 387.35546875 C360.22039439 394.7988875 354.10818733 399.46634822 344.32605886 400.79405272 C338.92849157 401.27194875 333.49495711 401.14006477 328.08087158 401.13371277 C326.65391154 401.13558226 325.226952 401.13788352 323.79999328 401.14057809 C319.88805172 401.14668481 315.97613157 401.14656384 312.06418633 401.14538372 C307.84198697 401.14517944 303.61979444 401.15070087 299.39759827 401.15544128 C291.13108027 401.1637409 282.8645694 401.16649576 274.59804758 401.16705366 C267.88199153 401.1675289 261.16593782 401.16958404 254.44988251 401.17275429 C235.41498805 401.18155696 216.38009922 401.18617397 197.34520271 401.18542381 C196.31943523 401.18538386 195.29366775 401.1853439 194.23681641 401.18530273 C193.20979975 401.18526185 192.1827831 401.18522097 191.12464473 401.18517885 C174.45963482 401.18477191 157.79464745 401.19435453 141.12964407 401.2084411 C124.02440865 401.22278602 106.91918425 401.22971241 89.81394267 401.22884732 C80.20789433 401.22851483 70.60186965 401.23128526 60.99582672 401.24202538 C52.82231855 401.25110535 44.64884479 401.25332613 36.47533378 401.24651595 C32.30284035 401.24323877 28.13041304 401.24323711 23.9579258 401.2518692 C20.14243537 401.25968193 16.32706408 401.2583569 12.51157674 401.24958507 C11.12748821 401.24803853 9.74339101 401.2499092 8.35931268 401.25544515 C6.48541465 401.26244702 4.61148059 401.25604991 2.73758316 401.24888897 C1.1729415 401.24921502 1.1729415 401.24921502 -0.42330909 401.24954766 C-3 401 -3 401 -6 399 C-6.66 399.33 -7.32 399.66 -8 400 C-16.30004302 394.73788122 -23.6475595 389.07676674 -28 380 C-29.26391308 372.69287608 -29.14532433 365.39908682 -29.14044189 358.00099182 C-29.14302877 356.57744467 -29.14604283 355.15389825 -29.1494453 353.73035282 C-29.15748007 349.83225649 -29.15930289 345.93417862 -29.16004276 342.036075 C-29.16189938 337.82672853 -29.16944955 333.61739151 -29.17617798 329.40805054 C-29.18973479 320.21193358 -29.19578132 311.015821 -29.20018864 301.81969571 C-29.20295445 296.07600834 -29.20719231 290.33232264 -29.21169281 284.5886364 C-29.22387992 268.67976392 -29.23418169 252.77089277 -29.2375679 236.86201572 C-29.23778747 235.84473487 -29.23800703 234.82745401 -29.23823325 233.77934646 C-29.23845153 232.75967334 -29.23866981 231.74000022 -29.2388947 230.68942791 C-29.23933816 228.62327421 -29.23978473 226.5571205 -29.24023438 224.4909668 C-29.2404558 223.46608951 -29.24067723 222.44121222 -29.24090537 221.38527804 C-29.24485548 204.76964023 -29.26231849 188.15404622 -29.2855939 171.53842533 C-29.30930824 154.47154958 -29.32176972 137.40469581 -29.32293582 120.3378033 C-29.32385231 110.75839184 -29.32959846 101.17903752 -29.34775543 91.5996418 C-29.36315722 83.4453498 -29.36827625 75.29113263 -29.36001733 67.13682885 C-29.35611168 62.97772961 -29.35703639 58.81878107 -29.37107468 54.65970039 C-29.38381795 50.84943981 -29.38261247 47.03944308 -29.37048396 43.22918283 C-29.36760386 41.20416455 -29.37945923 39.17914169 -29.39190602 37.15415961 C-29.32878325 25.51824644 -27.08069217 17.54529049 -19 9 C-16.73985535 7.06071096 -14.54691785 5.58581677 -12 4 C-11.360625 3.566875 -10.72125 3.13375 -10.0625 2.6875 C-6.72196619 1.57398873 -3.50411998 1.883196 0 2 C0 1.34 0 0.68 0 0 Z M315 160 C315 219.73 315 279.46 315 341 C315.33 341 315.66 341 316 341 C316 281.27 316 221.54 316 160 C315.67 160 315.34 160 315 160 Z " fill="#1D94D2" transform="translate(61,106)"/>
<path d="M0 0 C0.66 0.33 1.32 0.66 2 1 C6.82118357 20.83872465 11.01121194 46.37789409 -0.19295384 64.92343078 C-13.07540932 84.52031265 -31.6159593 100.70778528 -48.57253527 116.68126381 C-56.16584972 123.846024 -63.58440075 131.18218912 -70.99961031 138.53039216 C-84.21979157 151.62233049 -97.56542015 164.5778573 -110.99926758 177.45019531 C-124.02633643 189.93332127 -136.98813917 202.47870562 -149.87036133 215.11132812 C-150.66815187 215.89361798 -151.46594241 216.67590784 -152.28790843 217.48190345 C-156.29093961 221.4079216 -160.29275219 225.33517921 -164.29396141 229.26305413 C-197.34267699 261.70291659 -230.59930867 293.92291496 -264 326 C-265.65 325.34 -267.3 324.68 -269 324 C-269 291.33 -269 258.66 -269 225 C-268.01 225 -267.02 225 -266 225 C-265.67 224.01 -265.34 223.02 -265 222 C-264.02246356 220.97803008 -263.0194119 219.98020375 -262 219 C-261.484375 218.278125 -260.96875 217.55625 -260.4375 216.8125 C-259.963125 216.214375 -259.48875 215.61625 -259 215 C-258.34 215 -257.68 215 -257 215 C-256.505 214.01 -256.505 214.01 -256 213 C-254.33333333 211.33333333 -252.66666667 209.66666667 -251 208 C-250.1646875 206.8553125 -250.1646875 206.8553125 -249.3125 205.6875 C-248.879375 205.130625 -248.44625 204.57375 -248 204 C-247.34 204 -246.68 204 -246 204 C-246 203.34 -246 202.68 -246 202 C-245.21625 201.54625 -244.4325 201.0925 -243.625 200.625 C-240.76321538 198.85341905 -240.40585857 197.90544105 -239 195 C-236.875 193.75 -236.875 193.75 -235 193 C-235 192.34 -235 191.68 -235 191 C-234.34 191 -233.68 191 -233 191 C-233 190.34 -233 189.68 -233 189 C-232.01 188.67 -231.02 188.34 -230 188 C-229.34 187.01 -228.68 186.02 -228 185 C-226.68 185.66 -225.36 186.32 -224 187 C-224 198.88 -224 210.76 -224 223 C-218.33333333 218.58333333 -218.33333333 218.58333333 -215.5 215 C-212.9107857 211.89294284 -210.10063514 209.58386262 -207 207 C-206.175 206.01 -205.35 205.02 -204.5 204 C-201.9107857 200.89294284 -199.10063514 198.58386262 -196 196 C-195.175 195.01 -194.35 194.02 -193.5 193 C-190.9107857 189.89294284 -188.10063514 187.58386262 -185 185 C-183.30911778 183.02043058 -181.64169528 181.02054804 -180 179 C-177.3125 176.125 -177.3125 176.125 -175 174 C-174.34 174 -173.68 174 -173 174 C-172.67 173.01 -172.34 172.02 -172 171 C-170.01739574 169.31267723 -168.0167658 167.64633943 -166 166 C-165.34 165.01 -164.68 164.02 -164 163 C-163.34 163 -162.68 163 -162 163 C-161.67 162.01 -161.34 161.02 -161 160 C-159.5479183 158.7789313 -158.09178034 157.56197656 -156.60546875 156.3828125 C-154.74347839 154.85658828 -154.74347839 154.85658828 -152.5625 152.0625 C-150.09780052 149.11688355 -147.560772 146.86752091 -144.62109375 144.43359375 C-142.82559747 142.92815768 -142.82559747 142.92815768 -141 140.5 C-138.80781726 137.75977158 -136.40418868 135.70408777 -133.72265625 133.4609375 C-130.02032527 130.32109218 -126.82766384 126.8109711 -123.6875 123.125 C-120.64686228 119.6073995 -117.37336132 116.58696825 -113.8359375 113.578125 C-111.42547773 111.50615532 -109.21927679 109.27475871 -107 107 C-105.66803209 105.66530264 -104.33457769 104.33208781 -103 103 C-102.31035156 102.3090625 -101.62070312 101.618125 -100.91015625 100.90625 C-99.42878323 99.42790638 -97.93551481 97.96147786 -96.4375 96.5 C-94.41946098 94.43021639 -92.55822258 92.32436304 -90.6875 90.125 C-87.64686228 86.6073995 -84.37336132 83.58696825 -80.8359375 80.578125 C-78.42547773 78.50615532 -76.21927679 76.27475871 -74 74 C-72.66803209 72.66530264 -71.33457769 71.33208781 -70 70 C-69.360625 69.360625 -68.72125 68.72125 -68.0625 68.0625 C-45.375 45.375 -22.6875 22.6875 0 0 Z " fill="#1F94D1" transform="translate(480,5)"/>
<path d="M0 0 C0.01030746 0.56154282 0.02061493 1.12308563 0.03123474 1.7016449 C0.13907685 7.52493466 0.25369208 13.34806264 0.37231445 19.17114258 C0.41573507 21.34688953 0.45740471 23.52267214 0.49731445 25.69848633 C0.55484502 28.81863168 0.61858823 31.93859633 0.68359375 35.05859375 C0.70866249 36.52733192 0.70866249 36.52733192 0.73423767 38.02574158 C0.75418289 38.92659988 0.77412811 39.82745819 0.79467773 40.75561523 C0.81022202 41.55281479 0.8257663 42.35001434 0.84178162 43.17137146 C0.80400665 45.01851382 0.80400665 45.01851382 2 46 C2.13003251 47.64443469 2.19121158 49.29437385 2.22460938 50.94360352 C2.24712769 51.99882706 2.269646 53.0540506 2.29284668 54.14125061 C2.36371074 58.99652242 2.42142657 63.85163426 2.45996094 68.70727539 C2.48652547 71.26508349 2.52740276 73.82278536 2.58300781 76.38012695 C2.66228394 80.06766084 2.69530191 83.75314407 2.71875 87.44140625 C2.75174194 88.57816299 2.78473389 89.71491974 2.81872559 90.88612366 C2.80500309 96.36342274 2.57568249 100.05144611 -1.07568359 104.29638672 C-2.36318318 105.55239954 -3.67175924 106.78715216 -5 108 C-6.22436559 109.28076723 -7.44196694 110.56803389 -8.65283203 111.86157227 C-12.05690096 115.37087665 -15.48733642 118.85423467 -18.92529297 122.33032227 C-20.40159703 123.82841861 -21.87159128 125.33275725 -23.33544922 126.84301758 C-25.46202163 129.03614901 -27.60732262 131.20925415 -29.7578125 133.37890625 C-30.41000763 134.05893204 -31.06220276 134.73895782 -31.73416138 135.43959045 C-32.66070023 136.36196754 -32.66070023 136.36196754 -33.60595703 137.30297852 C-34.41034714 138.12282982 -34.41034714 138.12282982 -35.23098755 138.95924377 C-37 140 -37 140 -42 139 C-42.33 126.46 -42.66 113.92 -43 101 C-47.17610511 105.17355744 -47.17610511 105.17355744 -51 109.5625 C-53.42789891 112.42842191 -55.89657231 114.84484188 -59 117 C-59.66 117 -60.32 117 -61 117 C-61 117.99 -61 118.98 -61 120 C-62.46688037 121.27554815 -63.93976866 122.54881117 -65.4921875 123.71875 C-67.27499979 125.11472845 -67.27499979 125.11472845 -69 128 C-69.99 128 -70.98 128 -72 128 C-72.061875 128.556875 -72.12375 129.11375 -72.1875 129.6875 C-73.33874823 132.96412957 -75.48159664 134.66587006 -78 137 C-78.66 137.66 -79.32 138.32 -80 139 C-80.99 139 -81.98 139 -83 139 C-83.33 140.32 -83.66 141.64 -84 143 C-84.99 143 -85.98 143 -87 143 C-87 143.99 -87 144.98 -87 146 C-88.8125 148.1875 -88.8125 148.1875 -91 150 C-91.99 150 -92.98 150 -94 150 C-94.33 151.32 -94.66 152.64 -95 154 C-95.99 154 -96.98 154 -98 154 C-98 154.99 -98 155.98 -98 157 C-99.8125 159.1875 -99.8125 159.1875 -102 161 C-102.99 161 -103.98 161 -105 161 C-105.33 162.32 -105.66 163.64 -106 165 C-106.99 165 -107.98 165 -109 165 C-109.1546875 165.8971875 -109.1546875 165.8971875 -109.3125 166.8125 C-110.10503854 169.33421352 -110.91591409 170.39685699 -113 172 C-113.99 172 -114.98 172 -116 172 C-116.33 173.32 -116.66 174.64 -117 176 C-117.99 176 -118.98 176 -120 176 C-120.1546875 176.8971875 -120.1546875 176.8971875 -120.3125 177.8125 C-121.10503854 180.33421352 -121.91591409 181.39685699 -124 183 C-124.99 183 -125.98 183 -127 183 C-127.33 184.32 -127.66 185.64 -128 187 C-128.99 187 -129.98 187 -131 187 C-131.1546875 187.8971875 -131.1546875 187.8971875 -131.3125 188.8125 C-132.10503854 191.33421352 -132.91591409 192.39685699 -135 194 C-135.99 194 -136.98 194 -138 194 C-138.33 195.32 -138.66 196.64 -139 198 C-139.99 198 -140.98 198 -142 198 C-142.061875 198.5775 -142.12375 199.155 -142.1875 199.75 C-143.3205902 202.88778826 -145.37717725 204.01689011 -148 206 C-148.66 206.99 -149.32 207.98 -150 209 C-150.99 209 -151.98 209 -153 209 C-153.061875 209.5775 -153.12375 210.155 -153.1875 210.75 C-154.3205902 213.88778826 -156.37717725 215.01689011 -159 217 C-159.66 217.99 -160.32 218.98 -161 220 C-161.99 220 -162.98 220 -164 220 C-164.061875 220.5775 -164.12375 221.155 -164.1875 221.75 C-165.3205902 224.88778826 -167.37717725 226.01689011 -170 228 C-170.66 228.99 -171.32 229.98 -172 231 C-172.99 231 -173.98 231 -175 231 C-175.061875 231.5775 -175.12375 232.155 -175.1875 232.75 C-176.32969203 235.91299331 -178.33142373 237.01408277 -181 239 C-184.15256455 241.94917329 -186.8867098 245.18936133 -189.6328125 248.51171875 C-191 250 -191 250 -193 251 C-194.02297922 251.97648017 -195.01904252 252.98131338 -196 254 C-196.598125 254.5775 -197.19625 255.155 -197.8125 255.75 C-200.22598956 258.23244641 -202.42791359 260.8441338 -204.6328125 263.51171875 C-206 265 -206 265 -208 266 C-209.21704965 267.48019553 -210.43315929 268.96119483 -211.640625 270.44921875 C-213.53128956 272.60609757 -215.73143439 274.25494953 -218 276 C-220.40709152 278.26954343 -222.15450812 280.23176218 -224 283 C-224.99 283 -225.98 283 -227 283 C-227.12375 283.639375 -227.2475 284.27875 -227.375 284.9375 C-227.58125 285.618125 -227.7875 286.29875 -228 287 C-228.66 287.33 -229.32 287.66 -230 288 C-232.07870008 289.90547508 -233.40914225 291.61371337 -235 294 C-235.99 294 -236.98 294 -238 294 C-238.12375 294.639375 -238.2475 295.27875 -238.375 295.9375 C-238.58125 296.618125 -238.7875 297.29875 -239 298 C-239.66 298.33 -240.32 298.66 -241 299 C-242.02297922 299.97648017 -243.01904252 300.98131338 -244 302 C-250 308 -256 314 -262 320 C-262.804375 320.9075 -263.60875 321.815 -264.4375 322.75 C-265.283125 323.4925 -266.12875 324.235 -267 325 C-268.32 324.67 -269.64 324.34 -271 324 C-271 305.52 -271 287.04 -271 268 C-270.34 268 -269.68 268 -269 268 C-269 267.01 -269 266.02 -269 265 C-268.34 265 -267.68 265 -267 265 C-266.67 264.01 -266.34 263.02 -266 262 C-264.01739574 260.31267723 -262.0167658 258.64633943 -260 257 C-259.34 256.01 -258.68 255.02 -258 254 C-257.34 254 -256.68 254 -256 254 C-255.67 253.01 -255.34 252.02 -255 251 C-253.01739574 249.31267723 -251.0167658 247.64633943 -249 246 C-248.34 245.01 -247.68 244.02 -247 243 C-246.34 243 -245.68 243 -245 243 C-244.67 242.01 -244.34 241.02 -244 240 C-242.54932106 238.78011089 -241.0946065 237.56429516 -239.609375 236.38671875 C-237.73360255 234.84715152 -237.73360255 234.84715152 -235.5 232 C-232.9107857 228.89294284 -230.10063514 226.58386262 -227 224 C-226.175 223.01 -225.35 222.02 -224.5 221 C-221.9107857 217.89294284 -219.10063514 215.58386262 -216 213 C-215.175 212.01 -214.35 211.02 -213.5 210 C-210.9107857 206.89294284 -208.10063514 204.58386262 -205 202 C-204.175 201.01 -203.35 200.02 -202.5 199 C-199.9107857 195.89294284 -197.10063514 193.58386262 -194 191 C-193.195625 190.030625 -192.39125 189.06125 -191.5625 188.0625 C-189.09780052 185.11688355 -186.560772 182.86752091 -183.62109375 180.43359375 C-181.82559747 178.92815768 -181.82559747 178.92815768 -180 176.5 C-177.81025192 173.7628149 -175.41280946 171.70889339 -172.73046875 169.47265625 C-170.34874306 167.44577005 -168.18158849 165.23899871 -166 163 C-163.48909203 160.48909203 -160.97923975 157.9797461 -158.4375 155.5 C-156.00543753 153.10609032 -156.00543753 153.10609032 -154.1875 150.625 C-152.40678398 148.48814077 -150.83270522 146.95534439 -148.72602844 145.19456482 C-142.22474514 139.55672772 -136.25745693 133.36288993 -130.19604492 127.26196289 C-128.81082798 125.87154593 -127.42536392 124.48137512 -126.03967285 123.09143066 C-123.06951584 120.11137576 -120.10083413 117.12986177 -117.13323021 114.14726448 C-112.44329967 109.43419373 -107.74842384 104.72607037 -103.05256653 100.01890564 C-89.70495287 86.63791495 -76.36161058 73.25268487 -63.02856445 59.85717773 C-55.65475725 52.44890977 -48.2756544 45.04596043 -40.89054948 37.64895433 C-36.2172048 32.96749374 -31.55052049 28.27952313 -26.88854349 23.58674347 C-23.99565491 20.67790486 -21.09654829 17.77532812 -18.19557953 14.87454987 C-16.84770351 13.52424245 -15.50242197 12.17133971 -14.1598835 10.81572533 C-12.33334211 8.97213202 -10.49789622 7.13789955 -8.65983582 5.30580139 C-8.12540759 4.76195252 -7.59097936 4.21810365 -7.04035634 3.65777451 C-3.3423374 0 -3.3423374 0 0 0 Z " fill="#1C8CC8" transform="translate(482,84)"/>
<path d="M0 0 C0.33 0 0.66 0 1 0 C1 112.2 1 224.4 1 340 C0.67 340 0.34 340 0 340 C0 227.8 0 115.6 0 0 Z " fill="#00FFFF" transform="translate(31,137)"/>
<path d="M0 0 C0.99 0.495 0.99 0.495 2 1 C-17.36097717 20.36097717 -36.72195435 39.72195435 -56.08293152 59.08293152 C-56.57667991 59.57674128 -57.0704283 60.07055103 -57.57913876 60.57932472 C-58.93478771 61.93479625 -60.29107767 63.2896266 -61.6473999 64.64442444 C-63.70848429 66.70811559 -65.76154098 68.77909299 -67.80883789 70.85644531 C-71.71147627 74.81249959 -75.62327311 78.75936246 -79.53833008 82.703125 C-81.22557986 84.40555171 -82.91014014 86.11064804 -84.59204102 87.81835938 C-87.02440059 90.28700867 -89.466234 92.74592886 -91.91015625 95.203125 C-92.66128189 95.9697345 -93.41240753 96.73634399 -94.18629456 97.52618408 C-94.89060104 98.23071716 -95.59490753 98.93525024 -96.32055664 99.66113281 C-97.24391563 100.59448456 -97.24391563 100.59448456 -98.18592834 101.54669189 C-100 103 -100 103 -104 104 C-104 91.46 -104 78.92 -104 66 C-103.67 66 -103.34 66 -103 66 C-103 77.88 -103 89.76 -103 102 C-97.33333333 97.58333333 -97.33333333 97.58333333 -94.5 94 C-91.9107857 90.89294284 -89.10063514 88.58386262 -86 86 C-85.175 85.01 -84.35 84.02 -83.5 83 C-80.9107857 79.89294284 -78.10063514 77.58386262 -75 75 C-74.175 74.01 -73.35 73.02 -72.5 72 C-69.9107857 68.89294284 -67.10063514 66.58386262 -64 64 C-62.30911778 62.02043058 -60.64169528 60.02054804 -59 58 C-56.3125 55.125 -56.3125 55.125 -54 53 C-53.34 53 -52.68 53 -52 53 C-51.67 52.01 -51.34 51.02 -51 50 C-49.01739574 48.31267723 -47.0167658 46.64633943 -45 45 C-44.34 44.01 -43.68 43.02 -43 42 C-42.34 42 -41.68 42 -41 42 C-40.67 41.01 -40.34 40.02 -40 39 C-38.5479183 37.7789313 -37.09178034 36.56197656 -35.60546875 35.3828125 C-33.74347839 33.85658828 -33.74347839 33.85658828 -31.5625 31.0625 C-29.09780052 28.11688355 -26.560772 25.86752091 -23.62109375 23.43359375 C-21.82559747 21.92815768 -21.82559747 21.92815768 -20 19.5 C-17.80914954 16.76143692 -15.40979726 14.70668197 -12.7265625 12.46875 C-10.34535908 10.44311089 -8.18161591 8.23755478 -6 6 C-4.89714703 4.89452119 -3.79295733 3.79037449 -2.6875 2.6875 C-1.3571875 1.3571875 -1.3571875 1.3571875 0 0 Z " fill="#20A7E2" transform="translate(359,126)"/>
<path d="M0 0 C0.66 0.33 1.32 0.66 2 1 C-0.95025726 4.00803572 -3.91149669 7.0050179 -6.875 10 C-7.71675781 10.85851562 -8.55851562 11.71703125 -9.42578125 12.6015625 C-10.23144531 13.41367187 -11.03710938 14.22578125 -11.8671875 15.0625 C-12.61081543 15.81660156 -13.35444336 16.57070313 -14.12060547 17.34765625 C-16 19 -16 19 -18 19 C-18.26876953 19.59329102 -18.53753906 20.18658203 -18.81445312 20.79785156 C-20.00290732 23.00540033 -21.20742389 24.46542882 -22.96875 26.234375 C-23.53980469 26.80800781 -24.11085938 27.38164062 -24.69921875 27.97265625 C-25.29347656 28.55917969 -25.88773437 29.14570313 -26.5 29.75 C-27.09425781 30.35199219 -27.68851563 30.95398438 -28.30078125 31.57421875 C-28.87183594 32.14269531 -29.44289062 32.71117187 -30.03125 33.296875 C-30.55267578 33.81604492 -31.07410156 34.33521484 -31.61132812 34.87011719 C-33 36 -33 36 -35 36 C-35.25523437 36.59296875 -35.51046875 37.1859375 -35.7734375 37.796875 C-37.11816498 40.21224538 -38.49214367 41.51211706 -40.625 43.25 C-41.57246094 44.03117187 -41.57246094 44.03117187 -42.5390625 44.828125 C-43.02117187 45.21484375 -43.50328125 45.6015625 -44 46 C-44 45.01 -44 44.02 -44 43 C-42.57010247 41.76962305 -41.13204861 40.54677327 -39.64453125 39.38671875 C-37.73195307 37.85586142 -37.73195307 37.85586142 -35.5 35 C-32.9107857 31.89294284 -30.10063514 29.58386262 -27 27 C-26.175 26.01 -25.35 25.02 -24.5 24 C-21.9107857 20.89294284 -19.10063514 18.58386262 -16 16 C-15.175 15.01 -14.35 14.02 -13.5 13 C-10.90701956 9.88842347 -8.13767128 7.54935791 -5 5 C-3.28997625 3.37055328 -1.64631285 1.69473381 0 0 Z " fill="#047694" transform="translate(282,281)"/>
<path d="M0 0 C0.33 0 0.66 0 1 0 C1 11.88 1 23.76 1 36 C6.66666667 31.58333333 6.66666667 31.58333333 9.5 28 C12.0892143 24.89294284 14.89936486 22.58386262 18 20 C18.89556511 18.93360455 19.77113645 17.85006961 20.625 16.75 C23.05417861 13.93726687 23.58114576 13.6058729 27 13 C22.36522745 18.5470135 17.46763159 23.74700291 12.375 28.875 C11.62476563 29.64585937 10.87453125 30.41671875 10.1015625 31.2109375 C9.01101563 32.30921875 9.01101563 32.30921875 7.8984375 33.4296875 C7.24536621 34.09210449 6.59229492 34.75452148 5.91943359 35.43701172 C4 37 4 37 0 38 C0 25.46 0 12.92 0 0 Z " fill="#13D5F9" transform="translate(255,192)"/>
<path d="M0 0 C0.66 0.33 1.32 0.66 2 1 C-1.75973576 5.46400903 -5.437599 9.3500792 -10 13 C-11.10100646 14.23446178 -12.18241276 15.48652519 -13.25 16.75 C-17.11371341 21.28751774 -21.47218257 25.13954795 -26 29 C-26 28.01 -26 27.02 -26 26 C-24.57010247 24.76962305 -23.13204861 23.54677327 -21.64453125 22.38671875 C-19.73195307 20.85586142 -19.73195307 20.85586142 -17.5 18 C-15 15 -15 15 -12.0625 12.5625 C-9.04304441 10.03601675 -6.7309177 7.42419462 -4.296875 4.35546875 C-3.86890625 3.90816406 -3.4409375 3.46085938 -3 3 C-2.34 3 -1.68 3 -1 3 C-0.67 2.01 -0.34 1.02 0 0 Z " fill="#1EB0F5" transform="translate(308,176)"/>
<path d="M0 0 C0.66 0.33 1.32 0.66 2 1 C0.89718873 2.27200971 -0.20730769 3.54255853 -1.3125 4.8125 C-1.92738281 5.52019531 -2.54226562 6.22789062 -3.17578125 6.95703125 C-6.44911047 10.6228796 -6.44911047 10.6228796 -8 12 C-8.66 12 -9.32 12 -10 12 C-10.23460937 12.56203125 -10.46921875 13.1240625 -10.7109375 13.703125 C-12.30663 16.54635891 -14.28924543 18.48098127 -16.625 20.75 C-17.44226563 21.54921875 -18.25953125 22.3484375 -19.1015625 23.171875 C-19.72804687 23.77515625 -20.35453125 24.3784375 -21 25 C-21.33 24.01 -21.66 23.02 -22 22 C-21.34 22 -20.68 22 -20 22 C-19.67 21.01 -19.34 20.02 -19 19 C-17.01739574 17.31267723 -15.0167658 15.64633943 -13 14 C-12.34 13.01 -11.68 12.02 -11 11 C-10.34 11 -9.68 11 -9 11 C-8.67 10.01 -8.34 9.02 -8 8 C-6.01739574 6.31267723 -4.0167658 4.64633943 -2 3 C-1.34 2.01 -0.68 1.02 0 0 Z " fill="#027492" transform="translate(235,327)"/>
<path d="M0 0 C0 3 0 3 -1.3125 4.38671875 C-2.875 5.59114583 -4.4375 6.79557292 -6 8 C-6 5 -6 5 -4.6875 3.61328125 C-3.125 2.40885417 -1.5625 1.20442708 0 0 Z M-8 8 C-7.34 8.33 -6.68 8.66 -6 9 C-6.99 9.66 -7.98 10.32 -9 11 C-8.67 10.01 -8.34 9.02 -8 8 Z " fill="#25A6F5" transform="translate(46,112)"/>
<path d="M0 0 C0.66 0.33 1.32 0.66 2 1 C-1.465 3.97 -1.465 3.97 -5 7 C-5.66 6.67 -6.32 6.34 -7 6 C-4.69 4.02 -2.38 2.04 0 0 Z " fill="#20AFE3" transform="translate(262,223)"/>
<path d="M0 0 C2 1 2 1 2 1 Z " fill="#00BBFF" transform="translate(56,107)"/>
<path d="" fill="#0055AA" transform="translate(0,0)"/>
<path d="" fill="#0000FF" transform="translate(0,0)"/>
<path d="" fill="#00FFFF" transform="translate(0,0)"/>
<path d="" fill="#00FFFF" transform="translate(0,0)"/>
<path d="" fill="#00FFFF" transform="translate(0,0)"/>
<path d="" fill="#00FFFF" transform="translate(0,0)"/>
</svg>
